<mxfile host="app.diagrams.net" agent="Mozilla/5.0 (Windows NT 10.0; Win64; x64) AppleWebKit/537.36 (KHTML, like Gecko) Chrome/130.0.0.0 Safari/537.36 Edg/130.0.0.0" version="24.8.4">
  <diagram name="Neural Network Model" id="-PR0f1FFBHllH43kjlin">
    <mxGraphModel dx="1426" dy="783" grid="0" gridSize="10" guides="1" tooltips="1" connect="1" arrows="1" fold="1" page="1" pageScale="1" pageWidth="850" pageHeight="1100" background="none" math="0" shadow="0">
      <root>
        <mxCell id="0" />
        <mxCell id="1" parent="0" />
        <mxCell id="I604xDDYF_frLMUVyQzH-43" style="edgeStyle=orthogonalEdgeStyle;rounded=0;orthogonalLoop=1;jettySize=auto;html=1;exitX=1;exitY=0.5;exitDx=0;exitDy=0;entryX=0;entryY=0.5;entryDx=0;entryDy=0;flowAnimation=1;" edge="1" parent="1" source="I604xDDYF_frLMUVyQzH-10" target="I604xDDYF_frLMUVyQzH-12">
          <mxGeometry relative="1" as="geometry" />
        </mxCell>
        <mxCell id="I604xDDYF_frLMUVyQzH-44" style="edgeStyle=orthogonalEdgeStyle;rounded=0;orthogonalLoop=1;jettySize=auto;html=1;exitX=1;exitY=0.5;exitDx=0;exitDy=0;entryX=0;entryY=0.5;entryDx=0;entryDy=0;flowAnimation=1;" edge="1" parent="1" source="I604xDDYF_frLMUVyQzH-10" target="I604xDDYF_frLMUVyQzH-11">
          <mxGeometry relative="1" as="geometry" />
        </mxCell>
        <mxCell id="I604xDDYF_frLMUVyQzH-58" style="edgeStyle=orthogonalEdgeStyle;rounded=0;orthogonalLoop=1;jettySize=auto;html=1;exitX=1;exitY=0.5;exitDx=0;exitDy=0;entryX=0;entryY=0.5;entryDx=0;entryDy=0;flowAnimation=1;" edge="1" parent="1" source="I604xDDYF_frLMUVyQzH-10" target="I604xDDYF_frLMUVyQzH-54">
          <mxGeometry relative="1" as="geometry" />
        </mxCell>
        <mxCell id="I604xDDYF_frLMUVyQzH-10" value="Machine Learning Algorithms" style="rounded=1;whiteSpace=wrap;html=1;" vertex="1" parent="1">
          <mxGeometry x="30" y="440" width="200" height="30" as="geometry" />
        </mxCell>
        <mxCell id="I604xDDYF_frLMUVyQzH-46" style="edgeStyle=orthogonalEdgeStyle;rounded=0;orthogonalLoop=1;jettySize=auto;html=1;exitX=1;exitY=0.5;exitDx=0;exitDy=0;fillColor=#1ba1e2;strokeColor=#006EAF;flowAnimation=1;" edge="1" parent="1" source="I604xDDYF_frLMUVyQzH-11" target="I604xDDYF_frLMUVyQzH-13">
          <mxGeometry relative="1" as="geometry" />
        </mxCell>
        <mxCell id="I604xDDYF_frLMUVyQzH-47" style="edgeStyle=orthogonalEdgeStyle;rounded=0;orthogonalLoop=1;jettySize=auto;html=1;exitX=1;exitY=0.5;exitDx=0;exitDy=0;fillColor=#1ba1e2;strokeColor=#006EAF;flowAnimation=1;" edge="1" parent="1" source="I604xDDYF_frLMUVyQzH-11" target="I604xDDYF_frLMUVyQzH-14">
          <mxGeometry relative="1" as="geometry" />
        </mxCell>
        <mxCell id="I604xDDYF_frLMUVyQzH-48" style="edgeStyle=orthogonalEdgeStyle;rounded=0;orthogonalLoop=1;jettySize=auto;html=1;exitX=1;exitY=0.5;exitDx=0;exitDy=0;entryX=0;entryY=0.5;entryDx=0;entryDy=0;fillColor=#1ba1e2;strokeColor=#006EAF;flowAnimation=1;" edge="1" parent="1" source="I604xDDYF_frLMUVyQzH-11" target="I604xDDYF_frLMUVyQzH-15">
          <mxGeometry relative="1" as="geometry" />
        </mxCell>
        <mxCell id="I604xDDYF_frLMUVyQzH-11" value="Supervised Learning" style="rounded=1;whiteSpace=wrap;html=1;fillColor=#1ba1e2;fontColor=#ffffff;strokeColor=#006EAF;" vertex="1" parent="1">
          <mxGeometry x="280" y="440" width="200" height="30" as="geometry" />
        </mxCell>
        <mxCell id="I604xDDYF_frLMUVyQzH-49" style="edgeStyle=orthogonalEdgeStyle;rounded=0;orthogonalLoop=1;jettySize=auto;html=1;exitX=1;exitY=0.5;exitDx=0;exitDy=0;entryX=0;entryY=0.5;entryDx=0;entryDy=0;fillColor=#60a917;strokeColor=#2D7600;flowAnimation=1;" edge="1" parent="1" source="I604xDDYF_frLMUVyQzH-12" target="I604xDDYF_frLMUVyQzH-16">
          <mxGeometry relative="1" as="geometry" />
        </mxCell>
        <mxCell id="I604xDDYF_frLMUVyQzH-50" style="edgeStyle=orthogonalEdgeStyle;rounded=0;orthogonalLoop=1;jettySize=auto;html=1;exitX=1;exitY=0.5;exitDx=0;exitDy=0;entryX=0;entryY=0.5;entryDx=0;entryDy=0;fillColor=#60a917;strokeColor=#2D7600;flowAnimation=1;" edge="1" parent="1" source="I604xDDYF_frLMUVyQzH-12" target="I604xDDYF_frLMUVyQzH-17">
          <mxGeometry relative="1" as="geometry" />
        </mxCell>
        <mxCell id="I604xDDYF_frLMUVyQzH-12" value="Unsupervised Learning" style="rounded=1;whiteSpace=wrap;html=1;fillColor=#60a917;fontColor=#ffffff;strokeColor=#2D7600;" vertex="1" parent="1">
          <mxGeometry x="280" y="274" width="200" height="30" as="geometry" />
        </mxCell>
        <mxCell id="I604xDDYF_frLMUVyQzH-13" value="Linear Regression" style="rounded=1;whiteSpace=wrap;html=1;fillColor=#1ba1e2;fontColor=#ffffff;strokeColor=#006EAF;" vertex="1" parent="1">
          <mxGeometry x="590" y="410" width="200" height="30" as="geometry" />
        </mxCell>
        <mxCell id="I604xDDYF_frLMUVyQzH-14" value="Logistic Regression" style="rounded=1;whiteSpace=wrap;html=1;fillColor=#1ba1e2;fontColor=#ffffff;strokeColor=#006EAF;" vertex="1" parent="1">
          <mxGeometry x="590" y="460" width="200" height="30" as="geometry" />
        </mxCell>
        <mxCell id="I604xDDYF_frLMUVyQzH-15" value="Decision Tree" style="rounded=1;whiteSpace=wrap;html=1;fillColor=#1ba1e2;fontColor=#ffffff;strokeColor=#006EAF;" vertex="1" parent="1">
          <mxGeometry x="590" y="510" width="200" height="30" as="geometry" />
        </mxCell>
        <mxCell id="I604xDDYF_frLMUVyQzH-16" value="K-Means Clustering" style="rounded=1;whiteSpace=wrap;html=1;fillColor=#60a917;fontColor=#ffffff;strokeColor=#2D7600;" vertex="1" parent="1">
          <mxGeometry x="580" y="250" width="200" height="30" as="geometry" />
        </mxCell>
        <mxCell id="I604xDDYF_frLMUVyQzH-17" value="Principal Component Analysis" style="rounded=1;whiteSpace=wrap;html=1;fillColor=#60a917;fontColor=#ffffff;strokeColor=#2D7600;" vertex="1" parent="1">
          <mxGeometry x="580" y="300" width="200" height="30" as="geometry" />
        </mxCell>
        <mxCell id="I604xDDYF_frLMUVyQzH-51" style="edgeStyle=orthogonalEdgeStyle;rounded=0;orthogonalLoop=1;jettySize=auto;html=1;exitX=1;exitY=0.5;exitDx=0;exitDy=0;fillColor=#f8cecc;strokeColor=#b85450;gradientColor=#ea6b66;flowAnimation=1;" edge="1" source="I604xDDYF_frLMUVyQzH-54" target="I604xDDYF_frLMUVyQzH-55" parent="1">
          <mxGeometry relative="1" as="geometry" />
        </mxCell>
        <mxCell id="I604xDDYF_frLMUVyQzH-59" style="edgeStyle=orthogonalEdgeStyle;rounded=0;orthogonalLoop=1;jettySize=auto;html=1;exitX=1;exitY=0.5;exitDx=0;exitDy=0;entryX=0;entryY=0.5;entryDx=0;entryDy=0;fillColor=#f8cecc;gradientColor=#ea6b66;strokeColor=#b85450;flowAnimation=1;" edge="1" parent="1" source="I604xDDYF_frLMUVyQzH-54" target="I604xDDYF_frLMUVyQzH-56">
          <mxGeometry relative="1" as="geometry" />
        </mxCell>
        <mxCell id="I604xDDYF_frLMUVyQzH-54" value="Reinforcement Learning" style="rounded=1;whiteSpace=wrap;html=1;fillColor=#f8cecc;strokeColor=#b85450;gradientColor=#ea6b66;" vertex="1" parent="1">
          <mxGeometry x="280" y="620" width="200" height="30" as="geometry" />
        </mxCell>
        <mxCell id="I604xDDYF_frLMUVyQzH-55" value="Q Learning" style="rounded=1;whiteSpace=wrap;html=1;fillColor=#f8cecc;strokeColor=#b85450;gradientColor=#ea6b66;" vertex="1" parent="1">
          <mxGeometry x="590" y="605" width="200" height="30" as="geometry" />
        </mxCell>
        <mxCell id="I604xDDYF_frLMUVyQzH-56" value="Deep Q Learning" style="rounded=1;whiteSpace=wrap;html=1;fillColor=#f8cecc;strokeColor=#b85450;gradientColor=#ea6b66;" vertex="1" parent="1">
          <mxGeometry x="588" y="660" width="200" height="30" as="geometry" />
        </mxCell>
      </root>
    </mxGraphModel>
  </diagram>
</mxfile>
